<?xml version="1.0"?><svg xmlns="http://www.w3.org/2000/svg"  viewBox="0 0 24 24" width="24px" height="24px">    <path d="M 10 2 L 9 3 L 4 3 L 4 5 L 5 5 L 5 20 C 5 21.093063 5.9069372 22 7 22 L 15 22 L 15 20 L 7 20 L 7 5 L 17 5 L 17 15 L 19 15 L 19 5 L 20 5 L 20 3 L 19 3 L 15 3 L 14 2 L 10 2 z M 9 7 L 9 18 L 11 18 L 11 7 L 9 7 z M 13 7 L 13 18 L 15 18 L 15 7 L 13 7 z M 17.878906 16.929688 L 16.464844 18.34375 L 18.585938 20.464844 L 16.464844 22.585938 L 17.878906 24 L 20 21.878906 L 22.121094 24 L 23.535156 22.585938 L 21.414062 20.464844 L 23.535156 18.34375 L 22.121094 16.929688 L 20 19.050781 L 17.878906 16.929688 z"/></svg>