<?xml version="1.0" encoding="UTF-8"?>
<svg xmlns="http://www.w3.org/2000/svg" xmlns:xlink="http://www.w3.org/1999/xlink" viewBox="0 0 64 64" width="64px" height="64px">
<g id="surface119164626">
<path style=" stroke:none;fill-rule:nonzero;fill:rgb(0.784314%,0.784314%,0.784314%);fill-opacity:1;" d="M 63.011719 32 C 63.011719 14.875 49.125 0.988281 32 0.988281 C 14.875 0.988281 0.988281 14.875 0.988281 32 C 0.988281 49.125 14.875 63.011719 32 63.011719 C 49.125 63.011719 63.011719 49.125 63.011719 32 Z M 63.011719 32 M 18.261719 22.6875 C 18.261719 20.949219 18.824219 19.1875 19.9375 17.398438 C 21.050781 15.613281 22.6875 14.136719 24.824219 12.960938 C 26.960938 11.789062 29.460938 11.199219 32.324219 11.199219 C 34.976562 11.199219 37.324219 11.6875 39.351562 12.675781 C 41.386719 13.648438 42.949219 14.988281 44.0625 16.675781 C 45.175781 18.363281 45.726562 20.1875 45.726562 22.164062 C 45.726562 23.726562 45.414062 25.085938 44.773438 26.25 C 44.136719 27.425781 43.386719 28.4375 42.523438 29.289062 C 41.648438 30.136719 40.101562 31.574219 37.835938 33.585938 C 37.210938 34.148438 36.710938 34.648438 36.335938 35.085938 C 35.960938 35.511719 35.6875 35.914062 35.5 36.261719 C 35.3125 36.625 35.175781 36.976562 35.074219 37.335938 C 34.976562 37.699219 34.824219 38.324219 34.625 39.226562 C 34.273438 41.125 33.1875 42.085938 31.363281 42.085938 C 30.414062 42.085938 29.613281 41.773438 28.960938 41.148438 C 28.3125 40.523438 27.988281 39.601562 27.988281 38.375 C 27.988281 36.835938 28.226562 35.5 28.699219 34.375 C 29.175781 33.25 29.8125 32.261719 30.601562 31.414062 C 31.386719 30.5625 32.449219 29.550781 33.789062 28.375 C 34.960938 27.351562 35.800781 26.574219 36.324219 26.050781 C 36.851562 25.523438 37.289062 24.949219 37.636719 24.300781 C 38 23.664062 38.175781 22.960938 38.175781 22.210938 C 38.175781 20.75 37.625 19.511719 36.539062 18.5 C 35.449219 17.488281 34.039062 16.988281 32.324219 16.988281 C 30.3125 16.988281 28.824219 17.5 27.875 18.511719 C 26.925781 19.523438 26.113281 21.023438 25.460938 23 C 24.835938 25.074219 23.664062 26.101562 21.925781 26.101562 C 20.898438 26.101562 20.039062 25.738281 19.324219 25.011719 C 18.625 24.3125 18.261719 23.539062 18.261719 22.6875 Z M 31.675781 52.789062 C 30.5625 52.789062 29.585938 52.425781 28.75 51.699219 C 27.914062 50.976562 27.5 49.960938 27.5 48.664062 C 27.5 47.511719 27.898438 46.539062 28.710938 45.75 C 29.511719 44.960938 30.511719 44.574219 31.675781 44.574219 C 32.824219 44.574219 33.800781 44.976562 34.585938 45.75 C 35.375 46.539062 35.761719 47.511719 35.761719 48.664062 C 35.761719 49.949219 35.351562 50.949219 34.523438 51.6875 C 33.699219 52.425781 32.75 52.789062 31.675781 52.789062 Z M 31.675781 52.789062 "/>
</g>
</svg>
